<svg xmlns="http://www.w3.org/2000/svg" width="1000" height="700">
<style>text{font-family:Arial,sans-serif;font-size:14px;} .grid{stroke:#ddd;stroke-width:1;} .axis{stroke:#000;stroke-width:1.5;} .curve1{stroke:#1565c0;stroke-width:2;fill:none;} .curve2{stroke:#8e24aa;stroke-width:2;fill:none;} .ref{stroke:#c62828;stroke-dasharray:6 4;} .ny{stroke:#000;stroke-dasharray:3 4;} </style>
<text x="500.0" y="30" text-anchor="middle" font-size="18">Planner 30 Hz ZOH + 1-step Control Delay @ 100 Hz</text>
<rect x="70" y="70" width="860" height="245.0" fill="none" class="axis"/>
<rect x="70" y="385.0" width="860" height="245.0" fill="none" class="axis"/>
<line x1="70" y1="116.67" x2="930" y2="116.67" class="ref"/>
<line x1="883.30" y1="70" x2="883.30" y2="630.0" class="ny"/>
<line x1="863.96" y1="70" x2="863.96" y2="315.0" stroke="#2e7d32" stroke-dasharray="6 4"/>
<text x="869.96" y="88" fill="#2e7d32">-3 dB ≈ 13.31 Hz</text>
<polyline points="70.00,81.67 71.44,81.67 72.87,81.67 74.31,81.67 75.74,81.67 77.18,81.67 78.61,81.67 80.05,81.67 81.49,81.67 82.92,81.67 84.36,81.67 85.79,81.67 87.23,81.67 88.66,81.67 90.10,81.67 91.54,81.67 92.97,81.67 94.41,81.67 95.84,81.67 97.28,81.67 98.71,81.67 100.15,81.67 101.59,81.67 103.02,81.67 104.46,81.67 105.89,81.67 107.33,81.67 108.76,81.67 110.20,81.67 111.64,81.67 113.07,81.67 114.51,81.67 115.94,81.67 117.38,81.67 118.81,81.67 120.25,81.67 121.69,81.67 123.12,81.67 124.56,81.67 125.99,81.67 127.43,81.67 128.86,81.67 130.30,81.67 131.74,81.67 133.17,81.67 134.61,81.67 136.04,81.67 137.48,81.67 138.91,81.67 140.35,81.67 141.79,81.67 143.22,81.67 144.66,81.67 146.09,81.67 147.53,81.67 148.96,81.67 150.40,81.67 151.84,81.67 153.27,81.67 154.71,81.67 156.14,81.67 157.58,81.67 159.02,81.67 160.45,81.67 161.89,81.67 163.32,81.67 164.76,81.67 166.19,81.67 167.63,81.67 169.07,81.67 170.50,81.67 171.94,81.67 173.37,81.67 174.81,81.67 176.24,81.67 177.68,81.67 179.12,81.67 180.55,81.67 181.99,81.67 183.42,81.67 184.86,81.67 186.29,81.67 187.73,81.67 189.17,81.67 190.60,81.67 192.04,81.67 193.47,81.68 194.91,81.68 196.34,81.68 197.78,81.68 199.22,81.68 200.65,81.68 202.09,81.68 203.52,81.68 204.96,81.68 206.39,81.68 207.83,81.68 209.27,81.68 210.70,81.68 212.14,81.68 213.57,81.68 215.01,81.68 216.44,81.68 217.88,81.68 219.32,81.68 220.75,81.68 222.19,81.68 223.62,81.68 225.06,81.68 226.49,81.68 227.93,81.68 229.37,81.68 230.80,81.68 232.24,81.68 233.67,81.68 235.11,81.68 236.54,81.68 237.98,81.68 239.42,81.68 240.85,81.68 242.29,81.68 243.72,81.68 245.16,81.68 246.59,81.68 248.03,81.68 249.47,81.68 250.90,81.68 252.34,81.68 253.77,81.68 255.21,81.68 256.64,81.69 258.08,81.69 259.52,81.69 260.95,81.69 262.39,81.69 263.82,81.69 265.26,81.69 266.69,81.69 268.13,81.69 269.57,81.69 271.00,81.69 272.44,81.69 273.87,81.69 275.31,81.69 276.74,81.69 278.18,81.69 279.62,81.69 281.05,81.69 282.49,81.69 283.92,81.69 285.36,81.69 286.79,81.69 288.23,81.69 289.67,81.69 291.10,81.69 292.54,81.70 293.97,81.70 295.41,81.70 296.84,81.70 298.28,81.70 299.72,81.70 301.15,81.70 302.59,81.70 304.02,81.70 305.46,81.70 306.89,81.70 308.33,81.70 309.77,81.70 311.20,81.70 312.64,81.70 314.07,81.70 315.51,81.70 316.94,81.71 318.38,81.71 319.82,81.71 321.25,81.71 322.69,81.71 324.12,81.71 325.56,81.71 326.99,81.71 328.43,81.71 329.87,81.71 331.30,81.71 332.74,81.71 334.17,81.71 335.61,81.72 337.05,81.72 338.48,81.72 339.92,81.72 341.35,81.72 342.79,81.72 344.22,81.72 345.66,81.72 347.10,81.72 348.53,81.72 349.97,81.72 351.40,81.73 352.84,81.73 354.27,81.73 355.71,81.73 357.15,81.73 358.58,81.73 360.02,81.73 361.45,81.73 362.89,81.74 364.32,81.74 365.76,81.74 367.20,81.74 368.63,81.74 370.07,81.74 371.50,81.74 372.94,81.74 374.37,81.75 375.81,81.75 377.25,81.75 378.68,81.75 380.12,81.75 381.55,81.75 382.99,81.75 384.42,81.76 385.86,81.76 387.30,81.76 388.73,81.76 390.17,81.76 391.60,81.76 393.04,81.77 394.47,81.77 395.91,81.77 397.35,81.77 398.78,81.77 400.22,81.78 401.65,81.78 403.09,81.78 404.52,81.78 405.96,81.78 407.40,81.79 408.83,81.79 410.27,81.79 411.70,81.79 413.14,81.79 414.57,81.80 416.01,81.80 417.45,81.80 418.88,81.80 420.32,81.81 421.75,81.81 423.19,81.81 424.62,81.81 426.06,81.82 427.50,81.82 428.93,81.82 430.37,81.82 431.80,81.83 433.24,81.83 434.67,81.83 436.11,81.84 437.55,81.84 438.98,81.84 440.42,81.84 441.85,81.85 443.29,81.85 444.72,81.85 446.16,81.86 447.60,81.86 449.03,81.86 450.47,81.87 451.90,81.87 453.34,81.88 454.77,81.88 456.21,81.88 457.65,81.89 459.08,81.89 460.52,81.89 461.95,81.90 463.39,81.90 464.82,81.91 466.26,81.91 467.70,81.92 469.13,81.92 470.57,81.92 472.00,81.93 473.44,81.93 474.87,81.94 476.31,81.94 477.75,81.95 479.18,81.95 480.62,81.96 482.05,81.96 483.49,81.97 484.92,81.97 486.36,81.98 487.80,81.99 489.23,81.99 490.67,82.00 492.10,82.00 493.54,82.01 494.97,82.02 496.41,82.02 497.85,82.03 499.28,82.03 500.72,82.04 502.15,82.05 503.59,82.05 505.03,82.06 506.46,82.07 507.90,82.08 509.33,82.08 510.77,82.09 512.20,82.10 513.64,82.11 515.08,82.11 516.51,82.12 517.95,82.13 519.38,82.14 520.82,82.15 522.25,82.15 523.69,82.16 525.13,82.17 526.56,82.18 528.00,82.19 529.43,82.20 530.87,82.21 532.30,82.22 533.74,82.23 535.18,82.24 536.61,82.25 538.05,82.26 539.48,82.27 540.92,82.28 542.35,82.29 543.79,82.30 545.23,82.31 546.66,82.33 548.10,82.34 549.53,82.35 550.97,82.36 552.40,82.37 553.84,82.39 555.28,82.40 556.71,82.41 558.15,82.43 559.58,82.44 561.02,82.45 562.45,82.47 563.89,82.48 565.33,82.50 566.76,82.51 568.20,82.53 569.63,82.54 571.07,82.56 572.50,82.57 573.94,82.59 575.38,82.61 576.81,82.62 578.25,82.64 579.68,82.66 581.12,82.68 582.55,82.69 583.99,82.71 585.43,82.73 586.86,82.75 588.30,82.77 589.73,82.79 591.17,82.81 592.60,82.83 594.04,82.85 595.48,82.87 596.91,82.89 598.35,82.91 599.78,82.94 601.22,82.96 602.65,82.98 604.09,83.01 605.53,83.03 606.96,83.05 608.40,83.08 609.83,83.10 611.27,83.13 612.70,83.16 614.14,83.18 615.58,83.21 617.01,83.24 618.45,83.27 619.88,83.29 621.32,83.32 622.75,83.35 624.19,83.38 625.63,83.41 627.06,83.45 628.50,83.48 629.93,83.51 631.37,83.54 632.80,83.58 634.24,83.61 635.68,83.65 637.11,83.68 638.55,83.72 639.98,83.75 641.42,83.79 642.85,83.83 644.29,83.87 645.73,83.91 647.16,83.95 648.60,83.99 650.03,84.03 651.47,84.07 652.90,84.12 654.34,84.16 655.78,84.20 657.21,84.25 658.65,84.30 660.08,84.34 661.52,84.39 662.95,84.44 664.39,84.49 665.83,84.54 667.26,84.59 668.70,84.65 670.13,84.70 671.57,84.75 673.01,84.81 674.44,84.86 675.88,84.92 677.31,84.98 678.75,85.04 680.18,85.10 681.62,85.16 683.06,85.23 684.49,85.29 685.93,85.35 687.36,85.42 688.80,85.49 690.23,85.56 691.67,85.63 693.11,85.70 694.54,85.77 695.98,85.85 697.41,85.92 698.85,86.00 700.28,86.07 701.72,86.15 703.16,86.24 704.59,86.32 706.03,86.40 707.46,86.49 708.90,86.57 710.33,86.66 711.77,86.75 713.21,86.84 714.64,86.94 716.08,87.03 717.51,87.13 718.95,87.23 720.38,87.33 721.82,87.43 723.26,87.53 724.69,87.64 726.13,87.75 727.56,87.86 729.00,87.97 730.43,88.08 731.87,88.20 733.31,88.32 734.74,88.44 736.18,88.56 737.61,88.69 739.05,88.81 740.48,88.94 741.92,89.07 743.36,89.21 744.79,89.34 746.23,89.48 747.66,89.63 749.10,89.77 750.53,89.92 751.97,90.07 753.41,90.22 754.84,90.37 756.28,90.53 757.71,90.69 759.15,90.86 760.58,91.03 762.02,91.20 763.46,91.37 764.89,91.55 766.33,91.73 767.76,91.91 769.20,92.10 770.63,92.29 772.07,92.48 773.51,92.68 774.94,92.88 776.38,93.08 777.81,93.29 779.25,93.50 780.68,93.72 782.12,93.94 783.56,94.17 784.99,94.40 786.43,94.63 787.86,94.87 789.30,95.11 790.73,95.35 792.17,95.61 793.61,95.86 795.04,96.12 796.48,96.39 797.91,96.66 799.35,96.94 800.78,97.22 802.22,97.50 803.66,97.80 805.09,98.09 806.53,98.40 807.96,98.71 809.40,99.02 810.83,99.34 812.27,99.67 813.71,100.01 815.14,100.35 816.58,100.69 818.01,101.05 819.45,101.41 820.88,101.77 822.32,102.15 823.76,102.53 825.19,102.92 826.63,103.32 828.06,103.72 829.50,104.13 830.93,104.55 832.37,104.98 833.81,105.42 835.24,105.87 836.68,106.32 838.11,106.78 839.55,107.26 840.98,107.74 842.42,108.23 843.86,108.73 845.29,109.25 846.73,109.77 848.16,110.30 849.60,110.85 851.04,111.40 852.47,111.97 853.91,112.54 855.34,113.13 856.78,113.74 858.21,114.35 859.65,114.98 861.09,115.62 862.52,116.27 863.96,116.94 865.39,117.62 866.83,118.31 868.26,119.02 869.70,119.74 871.14,120.48 872.57,121.24 874.01,122.01 875.44,122.80 876.88,123.60 878.31,124.43 879.75,125.27 881.19,126.13 882.62,127.00 884.06,127.90 885.49,128.82 886.93,129.75 888.36,130.71 889.80,131.69 891.24,132.69 892.67,133.72 894.11,134.77 895.54,135.84 896.98,136.93 898.41,138.06 899.85,139.20 901.29,140.38 902.72,141.58 904.16,142.81 905.59,144.08 907.03,145.37 908.46,146.69 909.90,148.05 911.34,149.44 912.77,150.86 914.21,152.32 915.64,153.82 917.08,155.35 918.51,156.93 919.95,158.55 921.39,160.21 922.82,161.91 924.26,163.66 925.69,165.46 927.13,167.31 928.56,169.20 930.00,171.16" class="curve1"/>
<polyline points="70.00,385.98 71.44,385.99 72.87,386.00 74.31,386.01 75.74,386.02 77.18,386.02 78.61,386.03 80.05,386.04 81.49,386.05 82.92,386.06 84.36,386.07 85.79,386.08 87.23,386.09 88.66,386.10 90.10,386.11 91.54,386.12 92.97,386.13 94.41,386.14 95.84,386.15 97.28,386.16 98.71,386.17 100.15,386.18 101.59,386.19 103.02,386.20 104.46,386.21 105.89,386.22 107.33,386.23 108.76,386.24 110.20,386.26 111.64,386.27 113.07,386.28 114.51,386.29 115.94,386.30 117.38,386.31 118.81,386.32 120.25,386.34 121.69,386.35 123.12,386.36 124.56,386.37 125.99,386.38 127.43,386.40 128.86,386.41 130.30,386.42 131.74,386.43 133.17,386.45 134.61,386.46 136.04,386.47 137.48,386.49 138.91,386.50 140.35,386.51 141.79,386.53 143.22,386.54 144.66,386.55 146.09,386.57 147.53,386.58 148.96,386.59 150.40,386.61 151.84,386.62 153.27,386.64 154.71,386.65 156.14,386.67 157.58,386.68 159.02,386.70 160.45,386.71 161.89,386.73 163.32,386.74 164.76,386.76 166.19,386.77 167.63,386.79 169.07,386.80 170.50,386.82 171.94,386.84 173.37,386.85 174.81,386.87 176.24,386.89 177.68,386.90 179.12,386.92 180.55,386.94 181.99,386.95 183.42,386.97 184.86,386.99 186.29,387.01 187.73,387.02 189.17,387.04 190.60,387.06 192.04,387.08 193.47,387.10 194.91,387.12 196.34,387.13 197.78,387.15 199.22,387.17 200.65,387.19 202.09,387.21 203.52,387.23 204.96,387.25 206.39,387.27 207.83,387.29 209.27,387.31 210.70,387.33 212.14,387.35 213.57,387.37 215.01,387.39 216.44,387.42 217.88,387.44 219.32,387.46 220.75,387.48 222.19,387.50 223.62,387.53 225.06,387.55 226.49,387.57 227.93,387.59 229.37,387.62 230.80,387.64 232.24,387.66 233.67,387.69 235.11,387.71 236.54,387.73 237.98,387.76 239.42,387.78 240.85,387.81 242.29,387.83 243.72,387.86 245.16,387.88 246.59,387.91 248.03,387.93 249.47,387.96 250.90,387.99 252.34,388.01 253.77,388.04 255.21,388.07 256.64,388.09 258.08,388.12 259.52,388.15 260.95,388.18 262.39,388.21 263.82,388.23 265.26,388.26 266.69,388.29 268.13,388.32 269.57,388.35 271.00,388.38 272.44,388.41 273.87,388.44 275.31,388.47 276.74,388.50 278.18,388.53 279.62,388.57 281.05,388.60 282.49,388.63 283.92,388.66 285.36,388.69 286.79,388.73 288.23,388.76 289.67,388.79 291.10,388.83 292.54,388.86 293.97,388.89 295.41,388.93 296.84,388.96 298.28,389.00 299.72,389.04 301.15,389.07 302.59,389.11 304.02,389.14 305.46,389.18 306.89,389.22 308.33,389.26 309.77,389.29 311.20,389.33 312.64,389.37 314.07,389.41 315.51,389.45 316.94,389.49 318.38,389.53 319.82,389.57 321.25,389.61 322.69,389.65 324.12,389.69 325.56,389.73 326.99,389.77 328.43,389.82 329.87,389.86 331.30,389.90 332.74,389.95 334.17,389.99 335.61,390.03 337.05,390.08 338.48,390.12 339.92,390.17 341.35,390.22 342.79,390.26 344.22,390.31 345.66,390.36 347.10,390.40 348.53,390.45 349.97,390.50 351.40,390.55 352.84,390.60 354.27,390.65 355.71,390.70 357.15,390.75 358.58,390.80 360.02,390.85 361.45,390.90 362.89,390.96 364.32,391.01 365.76,391.06 367.20,391.12 368.63,391.17 370.07,391.22 371.50,391.28 372.94,391.34 374.37,391.39 375.81,391.45 377.25,391.51 378.68,391.56 380.12,391.62 381.55,391.68 382.99,391.74 384.42,391.80 385.86,391.86 387.30,391.92 388.73,391.98 390.17,392.04 391.60,392.11 393.04,392.17 394.47,392.23 395.91,392.30 397.35,392.36 398.78,392.43 400.22,392.49 401.65,392.56 403.09,392.63 404.52,392.70 405.96,392.76 407.40,392.83 408.83,392.90 410.27,392.97 411.70,393.04 413.14,393.12 414.57,393.19 416.01,393.26 417.45,393.33 418.88,393.41 420.32,393.48 421.75,393.56 423.19,393.63 424.62,393.71 426.06,393.79 427.50,393.87 428.93,393.95 430.37,394.02 431.80,394.10 433.24,394.19 434.67,394.27 436.11,394.35 437.55,394.43 438.98,394.52 440.42,394.60 441.85,394.69 443.29,394.77 444.72,394.86 446.16,394.95 447.60,395.04 449.03,395.12 450.47,395.21 451.90,395.31 453.34,395.40 454.77,395.49 456.21,395.58 457.65,395.68 459.08,395.77 460.52,395.87 461.95,395.96 463.39,396.06 464.82,396.16 466.26,396.26 467.70,396.36 469.13,396.46 470.57,396.56 472.00,396.66 473.44,396.77 474.87,396.87 476.31,396.98 477.75,397.08 479.18,397.19 480.62,397.30 482.05,397.41 483.49,397.52 484.92,397.63 486.36,397.74 487.80,397.86 489.23,397.97 490.67,398.08 492.10,398.20 493.54,398.32 494.97,398.44 496.41,398.56 497.85,398.68 499.28,398.80 500.72,398.92 502.15,399.04 503.59,399.17 505.03,399.30 506.46,399.42 507.90,399.55 509.33,399.68 510.77,399.81 512.20,399.94 513.64,400.07 515.08,400.21 516.51,400.34 517.95,400.48 519.38,400.62 520.82,400.76 522.25,400.90 523.69,401.04 525.13,401.18 526.56,401.32 528.00,401.47 529.43,401.61 530.87,401.76 532.30,401.91 533.74,402.06 535.18,402.21 536.61,402.37 538.05,402.52 539.48,402.68 540.92,402.83 542.35,402.99 543.79,403.15 545.23,403.31 546.66,403.48 548.10,403.64 549.53,403.80 550.97,403.97 552.40,404.14 553.84,404.31 555.28,404.48 556.71,404.66 558.15,404.83 559.58,405.01 561.02,405.18 562.45,405.36 563.89,405.54 565.33,405.73 566.76,405.91 568.20,406.10 569.63,406.28 571.07,406.47 572.50,406.66 573.94,406.86 575.38,407.05 576.81,407.25 578.25,407.44 579.68,407.64 581.12,407.84 582.55,408.05 583.99,408.25 585.43,408.46 586.86,408.67 588.30,408.88 589.73,409.09 591.17,409.30 592.60,409.52 594.04,409.74 595.48,409.96 596.91,410.18 598.35,410.40 599.78,410.63 601.22,410.86 602.65,411.09 604.09,411.32 605.53,411.55 606.96,411.79 608.40,412.03 609.83,412.27 611.27,412.51 612.70,412.75 614.14,413.00 615.58,413.25 617.01,413.50 618.45,413.75 619.88,414.01 621.32,414.26 622.75,414.52 624.19,414.79 625.63,415.05 627.06,415.32 628.50,415.59 629.93,415.86 631.37,416.13 632.80,416.41 634.24,416.69 635.68,416.97 637.11,417.26 638.55,417.54 639.98,417.83 641.42,418.12 642.85,418.42 644.29,418.71 645.73,419.01 647.16,419.32 648.60,419.62 650.03,419.93 651.47,420.24 652.90,420.55 654.34,420.87 655.78,421.19 657.21,421.51 658.65,421.83 660.08,422.16 661.52,422.49 662.95,422.82 664.39,423.16 665.83,423.50 667.26,423.84 668.70,424.18 670.13,424.53 671.57,424.88 673.01,425.24 674.44,425.60 675.88,425.96 677.31,426.32 678.75,426.69 680.18,427.06 681.62,427.43 683.06,427.81 684.49,428.19 685.93,428.57 687.36,428.96 688.80,429.35 690.23,429.74 691.67,430.14 693.11,430.54 694.54,430.95 695.98,431.36 697.41,431.77 698.85,432.18 700.28,432.60 701.72,433.02 703.16,433.45 704.59,433.88 706.03,434.32 707.46,434.75 708.90,435.20 710.33,435.64 711.77,436.09 713.21,436.55 714.64,437.00 716.08,437.47 717.51,437.93 718.95,438.40 720.38,438.88 721.82,439.36 723.26,439.84 724.69,440.33 726.13,440.82 727.56,441.31 729.00,441.81 730.43,442.32 731.87,442.83 733.31,443.34 734.74,443.86 736.18,444.38 737.61,444.91 739.05,445.44 740.48,445.98 741.92,446.52 743.36,447.07 744.79,447.62 746.23,448.18 747.66,448.74 749.10,449.30 750.53,449.87 751.97,450.45 753.41,451.03 754.84,451.62 756.28,452.21 757.71,452.81 759.15,453.41 760.58,454.02 762.02,454.63 763.46,455.25 764.89,455.87 766.33,456.50 767.76,457.14 769.20,457.78 770.63,458.43 772.07,459.08 773.51,459.74 774.94,460.40 776.38,461.07 777.81,461.75 779.25,462.43 780.68,463.12 782.12,463.81 783.56,464.51 784.99,465.22 786.43,465.93 787.86,466.65 789.30,467.37 790.73,468.11 792.17,468.84 793.61,469.59 795.04,470.34 796.48,471.10 797.91,471.86 799.35,472.64 800.78,473.41 802.22,474.20 803.66,474.99 805.09,475.79 806.53,476.60 807.96,477.41 809.40,478.23 810.83,479.06 812.27,479.90 813.71,480.74 815.14,481.59 816.58,482.45 818.01,483.32 819.45,484.19 820.88,485.07 822.32,485.96 823.76,486.86 825.19,487.76 826.63,488.67 828.06,489.60 829.50,490.52 830.93,491.46 832.37,492.41 833.81,493.36 835.24,494.33 836.68,495.30 838.11,496.28 839.55,497.27 840.98,498.26 842.42,499.27 843.86,500.28 845.29,501.31 846.73,502.34 848.16,503.38 849.60,504.44 851.04,505.50 852.47,506.57 853.91,507.65 855.34,508.74 856.78,509.84 858.21,510.95 859.65,512.06 861.09,513.19 862.52,514.33 863.96,515.48 865.39,516.64 866.83,517.81 868.26,518.99 869.70,520.18 871.14,521.38 872.57,522.59 874.01,523.82 875.44,525.05 876.88,526.29 878.31,527.55 879.75,528.82 881.19,530.09 882.62,531.38 884.06,532.68 885.49,533.99 886.93,535.32 888.36,536.65 889.80,538.00 891.24,539.36 892.67,540.73 894.11,542.12 895.54,543.51 896.98,544.92 898.41,546.34 899.85,547.77 901.29,549.22 902.72,550.68 904.16,552.15 905.59,553.64 907.03,555.13 908.46,556.65 909.90,558.17 911.34,559.71 912.77,561.26 914.21,562.83 915.64,564.41 917.08,566.00 918.51,567.61 919.95,569.23 921.39,570.87 922.82,572.52 924.26,574.19 925.69,575.87 927.13,577.56 928.56,579.27 930.00,581.00" class="curve2"/>
<text x="15" y="192.50" transform="rotate(-90 15,192.50)">Magnitude (dB)</text>
<text x="15" y="507.50" transform="rotate(-90 15,507.50)">Phase (deg)</text>
<text x="500.0" y="685" text-anchor="middle">Frequency (Hz, log scale)</text>
<text x="889.30" y="405.0" font-size="12">Planner Nyquist 15 Hz</text>
</svg>